<?xml version="1.0" encoding="UTF-8"?>
<svg fill="#fff" fill-rule="evenodd" stroke="#000" stroke-linecap="round" stroke-linejoin="round" viewBox="0 0 500 300" xmlns="http://www.w3.org/2000/svg">
<style><![CDATA[.B{stroke-opacity:.6}.C{stroke-linecap:butt}.D{fill:#262626}]]></style>
<g class="B" fill="none" stroke="#fff">
<g class="C">
<path d="m150.75 0.5 111.97 300.02"/>
<path d="M328.5.5L217 300.5225"/>
<path d="M.5 217.5h500M.5 73.5h500"/>
<path d="M300.5.5v300m13-300v300M178.5.5v300m-8-300v300M64.5.5v300m359-300v300m-21-300v300"/>
<path d="M.5 116.5h500m-500 58h500"/>
<path d="M.5 144.5h500"/>
</g>
<circle cx="117.5" cy="126.5" r="53"/>
<circle cx="117.5" cy="166" r="53"/>
<circle cx="119.25" cy="116.75" r="28.75"/>
<circle cx="118" cy="170.5" r="32.5"/>
<circle cx="368.5" cy="125.5" r="55"/>
<ellipse cx="376.5" cy="160.24" rx="63" ry="59.737"/>
<path class="C" d="M370.5.5v300"/>
<circle cx="370.25" cy="123.5" r="35"/>
<circle cx="372.5" cy="167.5" r="35"/>
<circle cx="117.5" cy="71.75" r="53"/>
<circle cx="117.5" cy="216.5" r="53"/>
</g>
<path class="D" d="m115.78 153.12q-24.121-6.9336-35.107-17.04-10.986-10.107-10.986-24.951 0-16.797 13.428-27.783 13.428-10.986 34.912-10.986 14.648 0 26.123 5.664 11.475 5.664 17.773 15.625t6.2988 21.777h-18.847q0-12.891-8.203-20.264-8.2032-7.373-23.145-7.373-13.867 0-21.631 6.1035-7.7637 6.1035-7.7637 16.943 0 8.6914 7.373 14.697 7.373 6.006 25.098 10.986 17.724 4.9796 27.734 10.986 10.01 6.0058 14.844 14.014 4.834 8.0078 4.834 18.848 0 17.285-13.476 27.686-13.477 10.4-36.035 10.4-14.648 0-27.344-5.6153-12.695-5.6152-19.58-15.381-6.8848-9.7657-6.8848-22.168h18.848q0 12.891 9.5214 20.361 9.5215 7.4707 25.44 7.4707 14.844 0 22.754-6.0547 7.9102-6.0547 7.9102-16.504 0-10.449-7.3243-16.162-7.3242-5.713-26.562-11.279z" stroke="none"/>
<circle class="B" cx="368.5" cy="215" r="55" fill="none" stroke="#fff"/>
<path class="D" d="m423.5 145.7v52.148q-7.2548 10.352-20.245 15.478-13 5.127-30.244 5.127-17.451 0-30.98-8.1543-13.529-8.1543-20.93-23.193-7.4018-15.039-7.598-34.863v-12.402q0-32.129 15.049-49.805 15.049-17.676 42.303-17.676 22.353 0 35.98 11.377t16.666 32.275h-18.824q-5.294-28.223-33.725-28.223-18.921 0-28.676 13.232t-9.8528 38.33v11.621q0 23.926 10.98 38.037 10.98 14.111 29.705 14.111 10.588 0 18.529-2.3437 7.94-2.3438 13.137-7.9102v-31.934h-33.039v-15.234h51.764z" stroke="none"/>
<g class="C B" fill="none" stroke="#fff">
<path d="M173.5.5l104.5 300"/>
<path d="M305.5.5L201 300.5"/>
</g>
<path class="D" d="m199.18 74.312 40.43 117.29 40.625-117.29h20.508l-52.734 142.19h-16.602l-52.637-142.19h20.41z" stroke="none"/>
</svg>
